<?xml version="1.0" encoding="UTF-8"?>
<svg xmlns="http://www.w3.org/2000/svg" viewBox="0 0 46.5 46.5">
  <defs>
    <style>
      .cls-1 {
        fill: #675a6f;
      }

      .cls-1, .cls-2 {
        stroke: #4d3c5b;
        stroke-miterlimit: 10;
        stroke-width: 1.5px;
      }

      .cls-2 {
        fill: none;
      }

      .cls-3 {
        fill: #231f20;
      }
    </style>
  </defs>
  <g id="Layer_2" data-name="Layer 2">
    <circle class="cls-1" cx="23.25" cy="23.25" r="22.5"/>
  </g>
  <g id="Layer_1" data-name="Layer 1">
    <g>
      <path class="cls-3" d="M7.6,38.32c-.21-.22-.41-.44-.61-.68C.26,30.21,.24,16.34,6.95,8.9c.22-.26,.43-.49,.64-.71,.2-.21,.35-.36,.44-.45,1.26-1.18,1.96-1.71,3.43-2.63,2.97-1.84,3.11,1.73,2.63,13.13-.1,2.43-.08,4.14-.08,5.01,0,.83-.02,2.52,.08,4.95,.24,5.87,.37,9.66,.04,11.7-.33,2.04-1.09,2.47-2.59,1.54-1.51-.93-2.22-1.47-3.51-2.67-.09-.08-.23-.23-.44-.45Zm1.61-2.21c1.04,.35,1.61-.05,1.82-1.3,.21-1.24,.07-3.53-.15-6.99-.15-2.41-.12-4-.12-4.63,0-.67-.02-2.23,.12-4.56,.2-3.3,.31-5.55,.07-6.84-.23-1.3-.82-1.71-1.85-1.36-.91,.31-1.36,.48-2.22,.85-3.67,8.58-3.67,15.39,0,23.96,.9,.38,1.36,.55,2.31,.88Z"/>
      <path class="cls-3" d="M19.44,41.34c-1.27-2.64-2.37-6.62-2.68-12.44-.06-1.24-.13-3.08-.14-5.58,0-2.54,.07-4.41,.13-5.65,.29-5.7,1.4-9.68,2.71-12.41,1.3-2.72,2.65-4.05,4.3-4.01,1.65,.04,3.01,1.42,4.38,4.15,1.37,2.74,2.57,6.69,2.92,12.32,.15,2.45,.18,4.35,.18,5.59,0,1.19-.03,3.06-.19,5.52-.36,5.76-1.57,9.7-2.9,12.36-1.33,2.65-2.7,4.01-4.4,4.05-1.7,.04-3.06-1.26-4.33-3.9Zm6.9-4.89c.68-1.66,1.17-4.2,1.31-7.81,.1-2.61,.12-4.45,.12-5.4,0-1.04-.02-2.87-.12-5.4-.14-3.61-.63-6.15-1.31-7.81-.68-1.66-1.49-2.47-2.48-2.49-.98-.01-1.77,.78-2.42,2.43-.66,1.65-1.1,4.2-1.21,7.83-.04,1.27-.07,3.06-.07,5.43,0,2.32,.03,4.11,.07,5.43,.11,3.63,.55,6.18,1.2,7.83,.65,1.65,1.44,2.45,2.43,2.43,.99-.01,1.79-.83,2.48-2.49Z"/>
      <path class="cls-3" d="M34.01,41.75c.02-.17,.09-.4,.22-.71,3.8-8.91,4.34-21.47,1.63-30.72-1.43-.4-2.17-.58-3.7-.87-.14-.03-.28-.18-.42-.46-.14-.28-.24-.6-.31-.97-.29-1.62-.46-2.4-.82-3.89-.09-.37-.13-.65-.11-.86,.01-.2,.08-.28,.21-.24,3.49,1.23,5.09,2.23,7.73,4.68,.09,.09,.25,.24,.45,.46,.21,.22,.42,.45,.64,.71,.89,1.05,1.29,1.62,2.01,2.8,.16,.27,.26,.48,.29,.63,.03,.15-.02,.21-.14,.15-1.21-.57-1.85-.84-3.19-1.32,3.3,8.46,2.56,20.75-2.02,28.66-.16,.28-.33,.54-.51,.78-.18,.24-.33,.39-.44,.47-.55,.36-.83,.53-1.4,.85-.1,.06-.15,0-.13-.16Z"/>
    </g>
  </g>
  <g id="Layer_3" data-name="Layer 3">
    <circle class="cls-2" cx="23.25" cy="23.25" r="22.5"/>
  </g>
</svg>